<svg width="449" height="540" viewBox="0 0 449 540" fill="none" xmlns="http://www.w3.org/2000/svg">
<path fill-rule="evenodd" clip-rule="evenodd" d="M129.04 47.6124C89.157 82.536 63.9999 133.646 63.9999 190.588V349.413C63.9999 419.583 121.308 476.472 192 476.472C262.692 476.472 320.001 419.583 320.001 349.413H351.999C351.999 428.355 271.528 508.236 192 508.236C112.47 508.236 32.0001 428.355 32.0001 349.413V190.588C32.0001 132.937 74.9157 74.787 129.04 47.6124ZM0 190.588C0 85.3293 85.9614 0 192 0C202.903 0 213.593 0.902073 224 2.63513C234.407 0.902073 245.097 0 256 0C362.037 0 447.999 85.3293 447.999 190.588V222.353H288V190.588C288 151.116 263.764 127.059 224 127.059C184.599 127.059 160.444 150.679 160.006 189.51C160.002 189.869 160 190.228 160 190.588V349.413C160 388.884 184.235 412.941 224 412.941C263.764 412.941 288 388.884 288 349.413V317.646H447.999V349.413H448.209C448.209 454.671 362.25 540 256.21 540C245.271 540 234.546 539.091 224.107 537.348C213.666 539.091 202.94 540 192 540C85.962 540 0 454.671 0 349.413V190.588ZM96 349.413V190.588C96 111.644 176.471 31.7646 256 31.7646C335.529 31.7646 416.001 111.644 416.001 190.588H384C384 120.416 326.691 63.5295 256 63.5295C185.308 63.5295 128 120.416 128 190.588V349.413C128 396.63 162.597 435.828 208 443.388C202.797 444.255 197.451 444.705 192 444.705C138.981 444.705 96 402.042 96 349.413ZM320.001 190.588H351.999C351.999 137.959 309.021 95.2941 256 95.2941C250.549 95.2941 245.203 95.745 240 96.6117C285.404 104.173 320.001 143.37 320.001 190.588ZM384 349.413H416.211C416.211 407.238 373.035 465.564 318.678 492.633C358.725 457.704 384 406.488 384 349.413Z" fill="black"/>
</svg>
