<svg width="512" height="512" viewBox="0 0 512 512" fill="none" xmlns="http://www.w3.org/2000/svg">
<g clip-path="url(#clip0_8_10)">
<rect width="512" height="512" rx="108" fill="white"/>
<path fill-rule="evenodd" clip-rule="evenodd" d="M192.37 107.742C165.676 131.024 148.837 165.097 148.837 203.059V308.942C148.837 355.722 187.195 393.648 234.511 393.648C281.828 393.648 320.186 355.722 320.186 308.942H341.604C341.604 361.57 287.742 414.824 234.511 414.824C181.28 414.824 127.419 361.57 127.419 308.942V203.059C127.419 164.625 156.143 125.858 192.37 107.742ZM106 203.059C106 132.886 163.537 76 234.511 76C241.809 76 248.965 76.6014 255.93 77.7568C262.896 76.6014 270.051 76 277.349 76C348.322 76 405.859 132.886 405.859 203.059V224.235H298.767V203.059C298.767 176.744 282.545 160.706 255.93 160.706C229.558 160.706 213.39 176.452 213.097 202.34C213.094 202.579 213.093 202.819 213.093 203.059V308.942C213.093 335.256 229.314 351.294 255.93 351.294C282.545 351.294 298.767 335.256 298.767 308.942V287.764H405.859V308.942H406C406 379.114 348.465 436 277.489 436C270.168 436 262.989 435.394 256.001 434.232C249.013 435.394 241.834 436 234.511 436C163.537 436 106 379.114 106 308.942V203.059ZM170.256 308.942V203.059C170.256 150.429 224.117 97.1764 277.349 97.1764C330.58 97.1764 384.442 150.429 384.442 203.059H363.023C363.023 156.277 324.664 118.353 277.349 118.353C230.032 118.353 191.674 156.277 191.674 203.059V308.942C191.674 340.42 214.831 366.552 245.221 371.592C241.738 372.17 238.16 372.47 234.511 372.47C199.024 372.47 170.256 344.028 170.256 308.942ZM320.186 203.059H341.604C341.604 167.972 312.837 139.529 277.349 139.529C273.7 139.529 270.122 139.83 266.639 140.408C297.029 145.449 320.186 171.58 320.186 203.059ZM363.023 308.942H384.583C384.583 347.492 355.684 386.376 319.301 404.422C346.106 381.136 363.023 346.992 363.023 308.942Z" fill="black"/>
</g>
<defs>
<clipPath id="clip0_8_10">
<rect width="512" height="512" rx="108" fill="white"/>
</clipPath>
</defs>
</svg>
