<svg width="300" height="360" viewBox="0 0 300 360" fill="none" xmlns="http://www.w3.org/2000/svg">
<path fill-rule="evenodd" clip-rule="evenodd" d="M86.3704 31.7416C59.6755 55.024 42.8371 89.0972 42.8371 127.059V232.942C42.8371 279.722 81.195 317.648 128.511 317.648C175.828 317.648 214.186 279.722 214.186 232.942H235.604C235.604 285.57 181.742 338.824 128.511 338.824C75.2796 338.824 21.4186 285.57 21.4186 232.942V127.059C21.4186 88.6246 50.1434 49.858 86.3704 31.7416ZM0 127.059C0 56.8862 57.5366 0 128.511 0C135.809 0 142.965 0.601382 149.93 1.75675C156.896 0.601382 164.051 0 171.349 0C242.322 0 300 56.8862 300 127.059V148.235H192.767V127.059C192.767 100.744 176.545 84.7058 149.93 84.7058C123.558 84.7058 107.39 100.452 107.097 126.34C107.094 126.579 107.093 126.819 107.093 127.059V232.942C107.093 259.256 123.314 275.294 149.93 275.294C176.545 275.294 192.767 259.256 192.767 232.942V211.764H300V232.942C300 303.114 242.465 360 171.489 360C164.168 360 156.989 359.394 150.001 358.232C143.013 359.394 135.834 360 128.511 360C57.537 360 0 303.114 0 232.942V127.059ZM64.2557 232.942V127.059C64.2557 74.4294 118.117 21.1764 171.349 21.1764C224.58 21.1764 278.442 74.4294 278.442 127.059H257.023C257.023 80.277 218.664 42.353 171.349 42.353C124.032 42.353 85.6744 80.277 85.6744 127.059V232.942C85.6744 264.42 108.831 290.552 139.221 295.592C135.738 296.17 132.16 296.47 128.511 296.47C93.024 296.47 64.2557 268.028 64.2557 232.942ZM214.186 127.059H235.604C235.604 91.9724 206.837 63.5294 171.349 63.5294C167.7 63.5294 164.122 63.83 160.639 64.4078C191.029 69.4486 214.186 95.58 214.186 127.059ZM257.023 232.942H278.583C278.583 271.492 249.684 310.376 213.301 328.422C240.106 305.136 257.023 270.992 257.023 232.942Z" fill="#F5F5F5"/>
</svg>
