<svg width="139" height="139" viewBox="0 0 139 139" fill="none" xmlns="http://www.w3.org/2000/svg">
<path d="M23.1616 81.284C38.2029 81.45 111.507 80.646 119.301 80.448C121.651 80.388 121.59 78 119.301 78C108.838 78 39.9994 78.782 23.1616 79.302C22.7544 79.3344 22.3809 79.4527 22.1104 79.6349C21.84 79.8172 21.6909 80.051 21.6909 80.293C21.6909 80.535 21.84 80.7688 22.1104 80.9511C22.3809 81.1333 22.7544 81.2516 23.1616 81.284Z" fill="#171717"/>
<path d="M95.2776 116.78C87.307 116.78 26.704 116.38 22.4114 117.102C20.9511 117.35 20.3738 118.742 22.1261 119.036C26.704 119.81 86.9911 119.418 95.3149 119.418C103.639 119.418 111.718 119.594 119.869 119.418C122.361 119.364 122.178 116.904 119.706 116.84C111.596 116.628 103.404 116.78 95.2776 116.78Z" fill="#171717"/>
<path d="M21.4572 135.466C20.9428 135.556 20.5094 135.762 20.2512 136.039C19.9931 136.316 19.931 136.642 20.0784 136.946C20.778 138.346 17.6366 137.866 120.921 138.88C121.491 138.846 122.019 138.688 122.403 138.438C122.787 138.188 123 137.862 123 137.525C123 137.188 122.787 136.862 122.403 136.612C122.019 136.362 121.491 136.204 120.921 136.17C21.8376 135.228 27.9879 135.168 21.4572 135.466Z" fill="#171717"/>
<path d="M118.714 100.792C119.266 100.77 119.786 100.628 120.17 100.393C120.555 100.159 120.777 99.8481 120.795 99.5221C120.812 99.1962 120.623 98.878 120.264 98.6296C119.905 98.3812 119.402 98.2202 118.853 98.178C104.114 97.938 35.5271 97.602 23.0839 99.062C21.0462 99.3 21.5013 101.048 23.4473 101.15C33.9717 101.708 50.0623 99.626 118.714 100.792Z" fill="#171717"/>
<path fill-rule="evenodd" clip-rule="evenodd" d="M2 78C0.895385 78 0 78.8954 0 80C0 81.1046 0.895385 82 2 82C3.10461 82 4 81.1046 4 80C4 78.8954 3.10461 78 2 78ZM2 84C0.895385 84 0 84.8954 0 86C0 87.1046 0.895385 88 2 88C3.10461 88 4 87.1046 4 86C4 84.8954 3.10461 84 2 84ZM6 86C6 84.8954 6.8954 84 8 84C9.1046 84 10 84.8954 10 86C10 87.1046 9.1046 88 8 88C6.8954 88 6 87.1046 6 86ZM2 90C0.895385 90 0 90.8954 0 92C0 93.1046 0.895385 94 2 94C3.10461 94 4 93.1046 4 92C4 90.8954 3.10461 90 2 90ZM6 92C6 90.8954 6.8954 90 8 90C9.1046 90 10 90.8954 10 92C10 93.1046 9.1046 94 8 94C6.8954 94 6 93.1046 6 92ZM8 78C6.8954 78 6 78.8954 6 80C6 81.1046 6.8954 82 8 82C9.1046 82 10 81.1046 10 80C10 78.8954 9.1046 78 8 78Z" fill="#D9D9D9"/>
<rect y="65" width="124" height="3" fill="#38A1FF" fill-opacity="0.6"/>
<path d="M129.055 12.691C128.411 13.027 117.273 26.415 122.405 24.823C123.133 24.597 130.405 15.383 130.763 13.731C130.806 13.5169 130.782 13.2948 130.694 13.0948C130.607 12.8947 130.46 12.7265 130.273 12.613C130.087 12.4994 129.87 12.446 129.652 12.4599C129.434 12.4739 129.226 12.5546 129.055 12.691V12.691Z" fill="#171717" fill-opacity="0.2"/>
<path d="M123.101 87.541C125.58 90.2561 128.215 92.8238 130.993 95.231C132.193 96.361 134.041 94.559 132.833 93.431C130.244 90.8258 127.521 88.3559 124.677 86.031C123.811 85.477 122.433 86.611 123.101 87.541Z" fill="#171717" fill-opacity="0.2"/>
<path d="M42.3411 94.455C41.6691 95.455 43.2271 96.727 44.0131 95.793C45.0271 94.593 50.9071 87.779 50.6131 86.313C49.8031 82.429 43.4891 92.757 42.3411 94.455Z" fill="#171717" fill-opacity="0.2"/>
<path d="M86.3391 62.135C85.3131 61.945 78.8051 67.7211 77.4911 68.9751C65.2051 60.9411 66.4271 62.919 66.5791 67.775C66.6253 71.0967 66.8563 74.4131 67.2711 77.7091C67.4211 78.7511 69.0051 78.569 69.0711 77.555C69.3211 73.841 68.8431 70.1391 68.7831 66.4271C79.6011 73.0271 76.2571 72.827 86.3591 64.551C87.5591 65.877 93.273 71.4371 95.003 71.2271C96.403 71.0531 101.117 64.7191 102.239 63.3691C102.239 66.2351 102.331 74.4151 103.181 76.7311C103.621 77.9311 104.781 77.5071 104.841 76.3131C104.989 73.7691 104.681 67.739 104.687 64.803C104.687 61.459 104.677 60.6031 103.277 58.6031C100.237 54.2591 92.5371 43.6171 87.8391 37.8411C83.7011 32.7511 83.5191 32.641 80.6151 37.137C76.1411 44.075 68.6311 57.5371 67.4831 60.0971C66.9971 61.1751 68.6591 61.683 69.2371 60.885C71.1611 58.227 75.5171 50.4131 77.5231 46.9751C82.0331 47.1551 86.5497 47.079 91.0511 46.747C94.7651 51.147 98.2751 55.6911 101.651 60.3471L94.7631 68.7051C93.8251 67.9611 87.3771 62.327 86.3391 62.135Z" fill="#171717" fill-opacity="0.2"/>
<path d="M46.5572 27.843C47.7412 29.165 49.5572 27.509 48.5732 26.387C46.1852 23.677 41.0692 17.523 38.7112 15.451C37.7772 14.629 36.5112 15.915 37.1712 16.895C38.8672 19.425 44.2192 25.235 46.5572 27.843Z" fill="#171717" fill-opacity="0.2"/>
<path d="M85.0552 16.077C85.2052 10.8861 84.898 5.69205 84.1372 0.555005C84.0318 0.370252 83.8751 0.220014 83.6861 0.122479C83.4971 0.0249441 83.2839 -0.0157041 83.0722 0.00545965C82.8606 0.0266234 82.6596 0.108695 82.4937 0.241727C82.3277 0.374759 82.2039 0.553055 82.1372 0.755017C81.9753 5.94011 82.2267 11.1299 82.8892 16.275C82.9495 16.533 83.101 16.7606 83.3159 16.9156C83.5308 17.0707 83.7945 17.1428 84.0584 17.1187C84.3222 17.0946 84.5685 16.9758 84.7517 16.7844C84.9349 16.5929 85.0427 16.3417 85.0552 16.077V16.077Z" fill="#171717" fill-opacity="0.2"/>
<path d="M86.8052 93.511C86.8052 95.171 86.3632 106.191 86.9592 107.637C87.0645 107.819 87.216 107.971 87.3984 108.076C87.5807 108.181 87.7876 108.237 87.9982 108.237C88.2087 108.237 88.4156 108.181 88.598 108.076C88.7803 107.971 88.9318 107.819 89.0372 107.637C89.6592 106.049 88.9532 95.697 88.8712 93.511C88.7632 92.341 86.8052 92.317 86.8052 93.511Z" fill="#171717" fill-opacity="0.2"/>
<path d="M36.7651 57.359C61.0551 11.677 116.423 16.477 136.785 53.657C112.729 90.371 65.6011 95.929 36.6551 60.629C35.7511 59.529 34.6331 60.935 35.4551 62.087C60.9031 97.487 115.277 92.867 137.729 57.087C138.461 56.1776 138.888 55.0613 138.95 53.8959C139.012 52.7304 138.706 51.575 138.075 50.593C113.385 8.30904 51.5491 15.915 35.0931 56.277C34.6031 57.477 36.1791 58.463 36.7651 57.359Z" fill="#171717" fill-opacity="0.2"/>
<path fill-rule="evenodd" clip-rule="evenodd" d="M17 0C15.8954 0 15 0.895415 15 2C15 3.10459 15.8954 4 17 4C18.1046 4 19 3.10459 19 2C19 0.895415 18.1046 0 17 0ZM17 6C15.8954 6 15 6.8954 15 8C15 9.1046 15.8954 10 17 10C18.1046 10 19 9.1046 19 8C19 6.8954 18.1046 6 17 6ZM21 8C21 6.8954 21.8954 6 23 6C24.1046 6 25 6.8954 25 8C25 9.1046 24.1046 10 23 10C21.8954 10 21 9.1046 21 8ZM17 12C15.8954 12 15 12.8954 15 14C15 15.1046 15.8954 16 17 16C18.1046 16 19 15.1046 19 14C19 12.8954 18.1046 12 17 12ZM21 14C21 12.8954 21.8954 12 23 12C24.1046 12 25 12.8954 25 14C25 15.1046 24.1046 16 23 16C21.8954 16 21 15.1046 21 14ZM23 0C21.8954 0 21 0.895415 21 2C21 3.10459 21.8954 4 23 4C24.1046 4 25 3.10459 25 2C25 0.895415 24.1046 0 23 0Z" fill="#D9D9D9"/>
<mask id="mask0_40_163" style="mask-type:luminance" maskUnits="userSpaceOnUse" x="6" y="-4" width="32" height="32">
<path d="M38 -4H6V28H38V-4Z" fill="white"/>
</mask>
<g mask="url(#mask0_40_163)">
<path d="M18.6001 9.00001C19.1001 8.80001 20.0001 8.90001 20.3001 9.50001C20.5001 10 20.7001 10.7 20.7001 10.6C20.7001 10.2 20.7001 9.40001 20.8001 9.00001C20.9001 8.70001 21.1001 8.40001 21.5001 8.30001C21.8001 8.20001 22.1001 8.20001 22.4001 8.20001C22.7001 8.30001 23.0001 8.50001 23.2001 8.70001C23.6001 9.30001 23.6001 10.6 23.6001 10.5C23.7001 10.2 23.7001 9.30001 23.9001 8.90001C24.0001 8.70001 24.4001 8.50001 24.6001 8.40001C24.9001 8.30001 25.3001 8.30001 25.6001 8.40001C25.8001 8.40001 26.2001 8.70001 26.3001 8.90001C26.5001 9.20001 26.6001 10.2 26.7001 10.6C26.7001 10.7 26.8001 10.2 27.0001 9.90001C27.4001 9.30001 28.8001 9.10001 28.9001 10.5C28.9001 11.2 28.9001 11.1 28.9001 11.6C28.9001 12.1 28.9001 12.4 28.9001 12.8C28.9001 13.2 28.8001 14.1 28.7001 14.5C28.6001 14.8 28.3001 15.5 28.0001 15.9C28.0001 15.9 26.9001 17.1 26.8001 17.7C26.7001 18.3 26.7001 18.3 26.7001 18.7C26.7001 19.1 26.8001 19.6 26.8001 19.6C26.8001 19.6 26.0001 19.7 25.6001 19.6C25.2001 19.5 24.7001 18.8 24.6001 18.5C24.4001 18.2 24.1001 18.2 23.9001 18.5C23.7001 18.9 23.2001 19.6 22.9001 19.6C22.2001 19.7 20.8001 19.6 19.8001 19.6C19.8001 19.6 20.0001 18.6 19.6001 18.2C19.3001 17.9 18.8001 17.4 18.5001 17.1L17.7001 16.2C17.4001 15.8 16.7001 15.3 16.5001 14.2C16.3001 13.3 16.3001 12.8 16.5001 12.4C16.7001 12 17.2001 11.8 17.4001 11.8C17.6001 11.8 18.1001 11.8 18.3001 11.9C18.5001 12 18.6001 12.1 18.8001 12.3C19.0001 12.6 19.1001 12.8 19.0001 12.4C18.9001 12.1 18.7001 11.8 18.6001 11.4C18.5001 11 18.2001 10.5 18.2001 9.90001C17.7001 9.90001 17.8001 9.30001 18.6001 9.00001Z" fill="white"/>
</g>
<mask id="mask1_40_163" style="mask-type:luminance" maskUnits="userSpaceOnUse" x="6" y="-4" width="32" height="32">
<path d="M38 -4H6V28H38V-4Z" fill="white"/>
</mask>
<g mask="url(#mask1_40_163)">
<path d="M18.6001 9.00001C19.1001 8.80001 20.0001 8.90001 20.3001 9.50001C20.5001 10 20.7001 10.7 20.7001 10.6C20.7001 10.2 20.7001 9.40001 20.8001 9.00001C20.9001 8.70001 21.1001 8.40001 21.5001 8.30001C21.8001 8.20001 22.1001 8.20001 22.4001 8.20001C22.7001 8.30001 23.0001 8.50001 23.2001 8.70001C23.6001 9.30001 23.6001 10.6 23.6001 10.5C23.7001 10.2 23.7001 9.30001 23.9001 8.90001C24.0001 8.70001 24.4001 8.50001 24.6001 8.40001C24.9001 8.30001 25.3001 8.30001 25.6001 8.40001C25.8001 8.40001 26.2001 8.70001 26.3001 8.90001C26.5001 9.20001 26.6001 10.2 26.7001 10.6C26.7001 10.7 26.8001 10.2 27.0001 9.90001C27.4001 9.30001 28.8001 9.10001 28.9001 10.5C28.9001 11.2 28.9001 11.1 28.9001 11.6C28.9001 12.1 28.9001 12.4 28.9001 12.8C28.9001 13.2 28.8001 14.1 28.7001 14.5C28.6001 14.8 28.3001 15.5 28.0001 15.9C28.0001 15.9 26.9001 17.1 26.8001 17.7C26.7001 18.3 26.7001 18.3 26.7001 18.7C26.7001 19.1 26.8001 19.6 26.8001 19.6C26.8001 19.6 26.0001 19.7 25.6001 19.6C25.2001 19.5 24.7001 18.8 24.6001 18.5C24.4001 18.2 24.1001 18.2 23.9001 18.5C23.7001 18.9 23.2001 19.6 22.9001 19.6C22.2001 19.7 20.8001 19.6 19.8001 19.6C19.8001 19.6 20.0001 18.6 19.6001 18.2C19.3001 17.9 18.8001 17.4 18.5001 17.1L17.7001 16.2C17.4001 15.8 16.7001 15.3 16.5001 14.2C16.3001 13.3 16.3001 12.8 16.5001 12.4C16.7001 12 17.2001 11.8 17.4001 11.8C17.6001 11.8 18.1001 11.8 18.3001 11.9C18.5001 12 18.6001 12.1 18.8001 12.3C19.0001 12.6 19.1001 12.8 19.0001 12.4C18.9001 12.1 18.7001 11.8 18.6001 11.4C18.5001 11 18.2001 10.5 18.2001 9.90001C17.7001 9.90001 17.8001 9.30001 18.6001 9.00001Z" stroke="black" stroke-width="0.75" stroke-linejoin="round"/>
</g>
<mask id="mask2_40_163" style="mask-type:luminance" maskUnits="userSpaceOnUse" x="6" y="-4" width="32" height="32">
<path d="M38 -4H6V28H38V-4Z" fill="white"/>
</mask>
<g mask="url(#mask2_40_163)">
<path d="M25.6001 16.7V13.3" stroke="black" stroke-width="0.75" stroke-linecap="round"/>
</g>
<mask id="mask3_40_163" style="mask-type:luminance" maskUnits="userSpaceOnUse" x="6" y="-4" width="32" height="32">
<path d="M38 -4H6V28H38V-4Z" fill="white"/>
</mask>
<g mask="url(#mask3_40_163)">
<path d="M23.6 16.7L23.5 13.3" stroke="black" stroke-width="0.75" stroke-linecap="round"/>
</g>
<mask id="mask4_40_163" style="mask-type:luminance" maskUnits="userSpaceOnUse" x="6" y="-4" width="32" height="32">
<path d="M38 -4H6V28H38V-4Z" fill="white"/>
</mask>
<g mask="url(#mask4_40_163)">
<path d="M21.6001 13.3V16.7" stroke="black" stroke-width="0.75" stroke-linecap="round"/>
</g>
</svg>
