<svg width="381" height="313" viewBox="0 0 381 313" fill="none" xmlns="http://www.w3.org/2000/svg">
<path d="M67.9566 173.795C67.8346 173.595 56.9566 154.011 49.2706 140.827C49.0942 140.376 48.7482 140.012 48.3068 139.813C47.8654 139.614 47.3636 139.595 46.9086 139.761C32.6186 142.425 20.3226 144.661 1.80664 148.245C7.54264 161.867 2.80664 151.729 17.2706 182.823C17.4846 183.361 17.6986 183.789 18.4506 183.575C23.9286 182.501 29.4066 181.659 34.8806 180.575C43.9066 178.761 65.9146 174.331 67.9566 173.795Z" fill="#A3E635"/>
<path d="M141.729 90.7875C141.301 90.7875 140.653 90.0355 140.549 89.4975C139.883 86.0655 127.967 21.2055 127.663 20.1275C127.207 18.5275 127.875 17.5275 129.595 17.3275C135.595 16.6295 221.945 7.32747 226.887 6.80347C227.959 6.69147 228.621 6.90547 228.927 8.09147C229.837 11.6235 244.375 72.7415 245.571 77.9995C245.65 78.3135 245.658 78.6415 245.594 78.959C245.529 79.2766 245.394 79.5754 245.198 79.8334C245.002 80.0914 244.75 80.3018 244.461 80.449C244.173 80.5961 243.854 80.6763 243.531 80.6835C239.235 81.0135 143.233 90.8935 141.729 90.7875Z" fill="#171717"/>
<path d="M69.7807 191.835C69.3047 188.507 68.1067 185.983 71.0707 185.071C73.3447 184.369 73.3247 184.425 73.3247 180.561C73.1093 176.332 74.4457 172.169 77.0827 168.855C78.8121 166.341 81.0208 164.194 83.5822 162.535C86.1436 160.877 89.0072 159.741 92.0087 159.191C96.9047 158.159 98.1407 157.511 111.231 159.083C115.831 159.635 128.563 162.211 134.431 162.305C141.651 162.421 148.009 159.881 145.809 152.961C142.797 143.435 133.951 139.429 124.439 133.417C119.665 130.399 115.723 127.693 119.177 122.571C120.812 120.312 122.991 118.502 125.513 117.309C132.525 113.633 132.225 114.087 135.713 113.549C135.713 113.335 135.713 112.905 135.927 112.799C137.327 111.725 136.877 110.439 136.571 109.147C136.058 106.258 136.168 103.293 136.893 100.449C137.108 99.666 137.568 98.9718 138.205 98.4681C138.843 97.9644 139.625 97.6776 140.437 97.6495C145.063 97.2895 246.009 86.7055 250.297 86.1615C251.889 85.8957 253.52 85.9995 255.065 86.4649C256.611 86.9303 258.028 87.7448 259.209 88.8455C268.853 97.3355 287.099 111.515 296.579 119.343C297.497 119.934 298.189 120.818 298.54 121.852C298.892 122.885 298.882 124.008 298.513 125.035C298.059 126.361 297.657 130.921 291.961 131.585C274.671 133.601 203.817 140.681 179.961 143.505C167.411 144.989 154.271 136.367 146.135 126.859C143.477 123.954 141.17 120.747 139.261 117.303C139.047 116.659 137.641 116.755 137.329 116.443C136.577 115.261 135.611 115.691 134.645 116.013C129.475 117.26 124.798 120.028 121.219 123.961C117.247 128.799 125.441 130.979 136.253 138.243C142.173 142.219 148.631 149.345 148.495 156.175C148.406 157.698 147.91 159.168 147.061 160.435C146.211 161.701 145.038 162.716 143.663 163.375C132.309 168.395 112.409 160.117 98.5607 161.013C89.9607 161.567 82.8227 164.905 78.3727 172.613C76.5211 175.683 75.6238 179.233 75.7947 182.813C75.7947 183.673 76.0087 184.317 77.0827 184.531C79.1247 184.747 79.4667 186.459 79.8827 188.075C80.4507 190.323 80.4247 190.275 82.6827 190.009C114.387 186.305 101.683 187.241 111.999 186.249C113.493 186.224 114.963 186.624 116.238 187.404C117.513 188.183 118.54 189.309 119.199 190.649C123.943 201.011 141.185 235.167 141.643 240.797C141.854 242.033 141.582 243.303 140.882 244.343C140.181 245.383 139.107 246.113 137.883 246.381C133.838 248.096 129.628 249.392 125.319 250.247C125.083 250.303 83.2527 259.069 76.7807 259.697C74.8447 259.885 68.0827 260.235 65.2907 258.731C58.6187 256.645 53.6167 244.775 50.7947 238.331C38.4347 210.105 38.6347 209.331 38.1227 203.647C37.9725 202.333 38.3187 201.009 39.0934 199.936C39.8681 198.863 41.0154 198.119 42.3107 197.847C48.8507 196.195 55.4027 194.803 61.9627 193.337C66.1567 192.397 69.3907 192.227 69.7807 191.835ZM43.9007 211.917C43.7044 211.952 43.5186 212.031 43.3574 212.148C43.1963 212.265 43.0641 212.418 42.9709 212.594C42.8777 212.77 42.826 212.965 42.8197 213.165C42.8134 213.364 42.8528 213.562 42.9347 213.743C46.2807 221.299 60.8687 251.757 61.5127 252.615C62.3127 253.415 136.685 238.701 136.897 238.655C137.122 238.607 137.334 238.509 137.516 238.368C137.698 238.227 137.847 238.047 137.95 237.841C138.053 237.635 138.108 237.408 138.112 237.177C138.116 236.947 138.067 236.719 137.971 236.509C134.427 229.149 121.433 201.393 120.371 199.245C120.241 199.057 120.062 198.908 119.854 198.814C119.646 198.719 119.416 198.683 119.189 198.709C110.809 200.105 55.0687 209.877 43.9007 211.917V211.917ZM142.159 117.095C144.384 121.276 147.205 125.111 150.535 128.479C160.863 138.279 172.563 141.759 176.307 141.479C179.741 141.217 283.161 130.029 290.673 129.131C291.904 129.072 293.077 128.592 293.996 127.771C294.915 126.95 295.524 125.838 295.721 124.621C295.893 123.973 295.884 123.289 295.694 122.645C295.505 122.001 295.143 121.422 294.647 120.969C282.135 110.619 269.595 100.065 257.169 89.6135C256.552 89.0137 255.804 88.5657 254.984 88.3047C254.164 88.0437 253.295 87.9768 252.445 88.1095C244.947 89.2155 151.937 99.1215 141.301 100.245C137.635 100.631 138.589 101.615 139.475 110.553C139.571 111.521 140.119 111.841 141.075 111.841C142.106 111.826 143.118 112.126 143.975 112.701C144.775 113.553 145.364 114.58 145.693 115.701C146.123 116.561 145.693 117.101 144.727 117.101C143.874 117.207 143.011 117.205 142.159 117.095V117.095Z" fill="#171717"/>
<path d="M282.408 42.6775C281.442 39.4555 280.582 36.3415 279.508 33.3355C279.137 28.589 279.463 23.8137 280.474 19.1615C282.074 18.3615 284.19 22.9395 287.026 25.9255C289.274 28.2935 289.602 31.2955 290.462 34.0875C290.892 35.4875 291.32 36.7715 291.75 38.1675C291.809 38.1742 291.868 38.168 291.924 38.1493C291.979 38.1307 292.03 38.1 292.072 38.0595C291.858 36.6595 290.998 22.8115 290.998 17.6595C290.998 14.4595 293.416 11.1535 296.476 12.6115C299.41 14.0115 299.657 16.9455 300.127 20.2355C302.383 20.0215 302.664 20.2355 303.126 22.4915C303.588 24.8316 303.588 27.2393 303.126 29.5795C302.904 30.4635 302.616 30.8275 302.052 30.5455C301.836 27.7455 301.192 22.0615 301.084 22.0615C300.891 22.8029 300.748 23.5566 300.656 24.3175C300.979 29.3641 301.408 34.4108 301.944 39.4575C301.944 39.7575 302.236 41.2995 303.126 40.8575C304.503 32.8125 306.333 24.8518 308.608 17.0135C309.148 14.9115 310.648 12.9435 312.796 13.6835C313.37 14.0586 313.819 14.5958 314.087 15.2268C314.355 15.8578 314.429 16.5542 314.3 17.2275C314.3 17.4415 314.192 17.5495 314.192 17.7655C314.73 17.9671 315.189 18.3376 315.498 18.8214C315.808 19.3053 315.953 19.8765 315.91 20.4495C315.964 22.9215 315.964 25.2795 315.91 27.7515C315.89 28.0145 315.775 28.2613 315.586 28.4454C315.397 28.6295 315.148 28.7384 314.884 28.7516C314.621 28.7649 314.361 28.6816 314.155 28.5174C313.948 28.3531 313.809 28.1192 313.762 27.8595C313.714 27.0645 313.607 26.2743 313.44 25.4955C307.798 53.7075 311.82 40.0175 318.594 25.8175C319.192 24.7691 319.913 23.7962 320.742 22.9195C321.568 21.6901 322.505 20.5398 323.542 19.4835C323.7 19.2154 323.918 18.9881 324.179 18.82C324.44 18.6518 324.737 18.5475 325.046 18.5155C326.012 18.5155 326.134 19.1595 326.226 20.1275C326.484 22.8075 326.872 25.3895 327.194 28.0735C327.372 28.9695 327.068 29.3555 321.18 42.3555C320.744 43.3195 321.18 43.8435 321.932 44.2895C322.802 44.8095 323.758 45.3635 324.616 45.7915C325.283 46.1349 325.815 46.6923 326.126 47.3742C326.438 48.0561 326.511 48.8229 326.334 49.5515C325.49 54.9395 318.412 93.9935 317.636 98.8395C315.742 110.653 298.481 108.423 286.817 105.927C280.959 104.675 281.37 101.127 279.944 94.9755C279.172 91.6495 270.364 54.1455 268.884 48.7995C267.506 43.8635 277.354 42.4055 282.408 42.6775ZM323.008 50.7315C305.826 54.3835 288.858 54.7055 272.106 48.7995C276.758 72.0535 278.946 78.3855 284.564 99.7995C285.26 102.457 286.944 102.117 287.892 102.599C300.83 103.999 305.862 105.599 311.624 102.921C312.432 102.631 313.147 102.129 313.695 101.468C314.242 100.807 314.603 100.011 314.738 99.1635C322.624 56.9615 320.208 66.9215 322.996 50.7315H323.008ZM281.878 32.7975C282.727 38.0631 284.164 43.2167 286.162 48.1615C286.281 48.4206 286.467 48.6431 286.7 48.8055C288.632 49.1275 290.564 49.3415 292.606 49.5575C292.282 48.2595 287.3 32.3575 287.236 32.1575C286.27 29.6835 281.438 32.2615 281.866 32.7975H281.878ZM322.149 29.6835C321.613 29.7915 321.072 30.2335 320.538 30.1135C320.106 30.0175 319.786 29.3615 319.356 28.8255C316.456 35.5895 312.914 42.0255 310.336 49.1215C312.268 48.9055 313.88 48.6915 315.49 48.4775C316.272 48.4775 316.368 48.0055 323.114 32.2615C323.47 31.5275 322.734 30.6815 322.136 29.6835H322.149ZM306.578 28.1815C305.074 35.5815 303.778 42.4635 302.282 49.6575C303.786 49.5515 304.752 49.4435 305.826 49.4435C307.606 49.4435 306.594 49.4895 311.194 29.3615C309.572 28.9335 308.069 28.6095 306.567 28.1815H306.578ZM300.134 49.6575C299.456 40.1735 298.991 35.7795 298.735 31.4015C298.599 29.0415 298.304 28.6015 295.834 28.8255C295.181 28.9686 294.536 29.1475 293.903 29.3615C294.547 36.1275 295.19 42.8935 295.728 49.6575H300.134ZM298.202 26.2575C297.772 22.9295 297.362 19.3815 296.698 15.9495C296.282 13.7995 294.12 14.8755 293.798 15.4115C293.371 16.0052 293.146 16.7201 293.154 17.4515C293.326 24.6635 293.798 25.3435 293.798 27.2235C295.29 26.8915 296.578 26.5615 298.19 26.2475L298.202 26.2575ZM284.992 28.0835C282.952 24.9695 282.952 24.9695 281.556 25.3995C280.912 30.2315 280.482 29.4795 281.878 29.4795C283.013 29.2765 284.08 28.7932 284.98 28.0735L284.992 28.0835ZM321.504 27.0095C323.008 26.1515 323.008 26.1515 324.504 28.2975H324.826C324.721 26.9015 324.614 25.5055 324.504 24.1095C323.943 23.8976 323.369 23.7186 322.787 23.5735C320.741 25.8175 320.74 25.8175 321.492 26.9995L321.504 27.0095Z" fill="#171717"/>
<path d="M12.7586 295.463C11.7258 295.61 10.6775 295.61 9.64465 295.463C9.45046 295.419 9.27035 295.327 9.12056 295.196C8.97077 295.065 8.85602 294.898 8.78665 294.711C8.67865 294.497 9.10865 294.067 9.32265 293.745C9.69737 293.364 10.1515 293.07 10.6528 292.885C11.154 292.699 11.69 292.626 12.2226 292.671C31.0546 289.139 336.911 233.271 370.997 226.629C374.153 226.013 376.073 229.073 373.575 229.629C371.357 230.135 12.9586 295.427 12.7586 295.463Z" fill="#171717"/>
<path d="M377.977 238.549C378.35 238.405 378.763 238.402 379.139 238.54C379.514 238.679 379.826 238.949 380.017 239.301C379.803 240.481 378.837 240.701 377.871 241.019C256.071 270.197 26.6707 312.323 15.6587 312.323C15.6587 307.729 88.2647 301.961 377.977 238.549Z" fill="#171717"/>
<path d="M65.9146 125.579C62.9146 128.157 54.4346 126.851 51.4186 124.935C49.3503 123.621 47.6591 121.791 46.5109 119.626C45.3626 117.461 44.7967 115.035 44.8686 112.585C44.5586 102.205 53.3706 98.7615 58.9346 103.457C59.3646 103.779 59.7946 104.209 60.1166 103.457C60.9711 101.815 62.2248 100.413 63.7625 99.3808C65.3001 98.3489 67.0724 97.7198 68.9166 97.5515C79.7366 95.6835 85.2246 94.5615 101.455 97.6595C106.295 98.5835 108.855 102.705 108.435 107.967C107.752 115.56 104.75 122.759 99.8346 128.585C98.0844 130.78 95.5474 132.207 92.7626 132.561C87.8245 133.322 82.8144 133.502 77.8346 133.097C71.7346 132.589 67.9526 127.325 65.9146 125.579ZM61.6206 106.465C61.2808 110.327 61.9464 114.211 63.5526 117.739C65.6775 122.035 68.7206 125.812 72.4666 128.801C73.8244 130.039 75.5732 130.761 77.4086 130.841C83.2603 131.295 89.1463 130.97 94.9126 129.875C95.4966 129.704 96.0188 129.368 96.4166 128.907C102.177 122.965 106.839 113.895 106.511 105.391C106.325 100.575 101.293 99.1135 96.5246 98.4115C85.8926 96.8435 62.6566 95.7895 61.6206 106.465V106.465ZM79.3386 98.8395C96.8566 97.0395 108.085 102.487 103.501 104.531C95.3326 108.173 81.7006 110.273 66.1306 106.249C64.5166 105.833 61.8266 103.649 65.3786 101.631C67.8426 100.227 76.3306 99.1475 79.3386 98.8395V98.8395ZM59.1506 107.323C59.2826 106.662 59.1681 105.975 58.8286 105.391C58.1416 104.548 57.2427 103.903 56.224 103.523C55.2054 103.142 54.1038 103.04 53.0323 103.225C51.9609 103.411 50.9582 103.879 50.1274 104.581C49.2965 105.282 48.6674 106.192 48.3046 107.217C47.6177 108.815 47.2747 110.54 47.2979 112.279C47.3211 114.019 47.71 115.733 48.4392 117.313C49.1684 118.892 50.2216 120.3 51.5305 121.445C52.8394 122.591 54.3747 123.448 56.0366 123.961C58.877 125.091 62.0129 125.242 64.9486 124.389C64.4126 123.637 63.8746 122.989 63.4446 122.349C57.1826 124.577 45.0806 112.921 52.9226 107.423C53.8026 106.718 54.892 106.326 56.0195 106.308C57.1469 106.29 58.2483 106.647 59.1506 107.323V107.323ZM62.9086 121.605C60.7047 118.09 59.4811 114.049 59.3646 109.901C59.1919 109.472 58.9249 109.086 58.5834 108.773C58.2419 108.461 57.8345 108.228 57.3913 108.094C56.9481 107.96 56.4803 107.927 56.0226 107.997C55.5649 108.068 55.1288 108.24 54.7466 108.501C48.8086 111.797 56.1786 121.605 62.9086 121.605V121.605ZM78.1566 102.277C75.1566 100.773 69.7806 101.309 68.0626 103.995C71.4986 103.361 74.6086 102.813 78.1566 102.277Z" fill="#171717"/>
<path d="M134.965 95.9415C135.395 100.451 133.047 96.5835 132.925 95.8335C132.255 91.7395 119.577 25.6075 119.071 22.0595C118.583 19.7946 118.807 17.4346 119.71 15.3014C120.614 13.1681 122.153 11.3655 124.119 10.1395C125.257 9.55571 126.495 9.19137 127.769 9.06546C130.555 8.59946 220.553 0.195461 224.417 0.0454607C236.469 -0.422539 235.351 1.17747 252.873 82.9475C252.873 85.2035 251.179 84.4455 250.941 83.4835C250.647 82.2955 250.161 81.1295 249.867 79.9415C234.295 16.9815 234.499 8.92946 233.115 6.38146C232.572 5.11995 231.649 4.05913 230.475 3.3468C229.301 2.63447 227.934 2.3061 226.565 2.40746C223.343 2.62746 127.439 11.4075 125.837 12.3955C122.089 14.6895 122.037 17.9675 121.541 20.9855C121.649 21.0935 133.891 89.7135 134.965 95.9415Z" fill="#171717"/>
<path d="M58.2906 177.875C55.8306 178.357 46.6906 180.327 44.5466 180.775C41.2046 181.473 33.0946 182.665 19.2026 185.715C18.6601 185.878 18.0902 185.929 17.5274 185.865C16.9646 185.801 16.4207 185.624 15.9287 185.343C15.4366 185.063 15.0067 184.685 14.6649 184.233C14.3232 183.782 14.0767 183.265 13.9406 182.715C-0.683422 147.979 -0.191421 149.013 0.0885786 147.055C0.0885786 146.391 -0.481419 146.693 39.0686 139.109C41.8686 138.575 44.6586 138.061 47.4446 137.391C48.7366 137.081 49.3786 137.821 49.9146 138.791C63.2346 162.767 57.7826 153.991 67.7406 170.147C68.6006 171.547 69.2626 172.927 70.1026 174.229C70.6526 175.079 70.2086 175.723 69.3526 175.947C68.6086 176.137 61.4086 177.265 58.2906 177.875ZM67.9566 173.795C67.8346 173.595 56.9566 154.011 49.2706 140.827C49.0941 140.376 48.7482 140.012 48.3067 139.813C47.8653 139.614 47.3635 139.595 46.9086 139.761C32.6186 142.425 20.3226 144.661 1.80658 148.245C7.54258 161.867 2.80658 151.729 17.2706 182.823C17.4846 183.361 17.6986 183.789 18.4506 183.575C23.9286 182.501 29.4066 181.659 34.8806 180.575C43.9066 178.761 65.9146 174.331 67.9566 173.795Z" fill="#171717"/>
<path d="M6.42469 86.1615C4.11469 86.6235 3.01269 83.5235 5.35069 82.9395C8.35069 82.5795 119.779 72.8195 123.367 72.5235C124.869 72.3995 125.407 72.6295 125.515 73.7035C125.623 74.7775 125.299 75.3155 124.115 75.3155C120.093 75.3235 7.05869 86.1615 6.42469 86.1615Z" fill="#171717"/>
<path d="M341.037 142.545C334.923 140.879 338.351 142.531 322.567 136.639C318.405 134.888 314.502 132.576 310.967 129.767C310.22 129.254 309.382 128.889 308.497 128.693C307.844 128.603 307.229 128.336 306.718 127.921C306.207 127.506 305.82 126.958 305.598 126.338C305.377 125.718 305.33 125.049 305.462 124.404C305.594 123.759 305.901 123.162 306.349 122.679C308.839 119.719 312.06 117.461 315.693 116.129C321.943 113.495 328.149 114.413 334.269 116.559C343.407 119.759 354.711 123.087 357.469 132.023C357.898 133.665 357.796 135.401 357.179 136.981C356.562 138.562 355.461 139.907 354.033 140.823C346.421 145.017 344.381 143.457 341.037 142.545ZM313.761 130.197C320.495 134.405 327.853 137.521 335.561 139.431C334.307 138.179 336.973 139.763 314.513 129.981C313.637 129.399 313.235 129.933 313.761 130.197V130.197ZM320.633 116.237C316.319 117.237 310.233 119.925 307.747 123.539C306.647 125.139 307.099 126.239 309.037 126.761C319.043 129.353 328.626 133.367 337.493 138.679C342.421 141.165 346.315 143.267 352.743 137.929C355.743 135.441 355.859 133.309 353.815 129.981C352.173 127.181 349.695 124.966 346.729 123.647C341.685 121.491 336.529 119.565 331.265 117.739C327.845 116.581 324.239 116.071 320.633 116.237V116.237Z" fill="#171717"/>
<path d="M303.344 169.071C303.558 164.989 306.66 163.399 310.216 165.419C310.416 165.537 337.854 180.661 359.292 193.019C361.193 195.104 362.883 197.37 364.338 199.785C364.832 200.533 364.59 201.385 363.372 201.385C353.852 200.327 362.298 203.681 306.136 172.185C305.17 171.325 303.774 170.467 303.344 169.071ZM357.896 194.091L317.408 171.111C317.084 170.836 316.703 170.636 316.293 170.523C315.882 170.411 315.453 170.39 315.033 170.462C314.614 170.534 314.215 170.696 313.866 170.938C313.516 171.18 313.223 171.496 313.008 171.863C312.128 172.919 312.154 173.463 313.33 174.117C331.854 184.379 354.944 197.849 355.426 197.849C356.178 196.669 356.93 195.379 357.896 194.091V194.091ZM361.332 197.741L359.722 195.165C357.68 196.023 356.822 197.097 356.922 198.815C358.432 198.601 360.15 199.675 361.332 197.741ZM306.132 170.037C306.99 168.747 307.742 167.567 308.602 166.277C308.344 166.134 308.059 166.046 307.765 166.017C307.471 165.989 307.174 166.021 306.893 166.111C306.612 166.202 306.352 166.35 306.13 166.545C305.908 166.74 305.729 166.978 305.602 167.245C304.848 168.533 305.17 169.607 306.136 170.037H306.132ZM310.212 172.613C311.286 171.213 312.252 170.143 313.212 168.963C312.455 168.913 311.703 169.134 311.093 169.586C310.483 170.039 310.054 170.694 309.882 171.433C309.894 171.761 310.208 172.291 310.208 172.613H310.212ZM308.064 171.539C309.032 169.939 309.782 168.739 310.428 167.459C308.816 167.781 307.742 168.641 307.628 170.037C307.688 170.56 307.837 171.068 308.068 171.539H308.064Z" fill="#171717"/>
<path d="M104.467 127.189C110.991 128.325 109.133 141.891 86.3187 143.297C77.4647 143.843 58.0467 140.369 61.4047 133.419C61.6859 132.597 62.2018 131.874 62.8888 131.341C63.5758 130.808 64.4038 130.488 65.2707 130.419C65.1072 130.744 64.8436 131.008 64.5187 131.171C63.9727 131.46 63.5191 131.896 63.21 132.43C62.9009 132.965 62.7489 133.575 62.7715 134.192C62.794 134.809 62.9903 135.407 63.3375 135.918C63.6848 136.428 64.1691 136.83 64.7347 137.077C74.4027 142.953 94.2727 143.589 104.253 135.477C104.799 135.074 105.257 134.563 105.598 133.975C105.94 133.388 106.157 132.737 106.237 132.063C106.318 131.388 106.259 130.705 106.066 130.054C105.872 129.403 105.547 128.798 105.111 128.277C104.789 128.049 104.681 127.619 104.467 127.189Z" fill="#171717"/>
<path d="M329.547 55.7795C327.987 55.7795 327.689 54.4595 328.795 53.6315C330.617 51.6675 353.937 50.1955 354.139 50.1955C354.68 50.1528 355.216 50.3267 355.628 50.6791C356.041 51.0315 356.297 51.5334 356.34 52.0745C356.382 52.6155 356.208 53.1514 355.856 53.5641C355.504 53.9769 355.002 54.2328 354.461 54.2755C346.192 55.2527 337.873 55.7548 329.547 55.7795V55.7795Z" fill="#171717"/>
<path d="M258.135 59.4295C266.535 58.4715 267.923 58.3275 269.089 58.9995C269.309 59.101 269.494 59.2662 269.62 59.4736C269.746 59.6811 269.807 59.9215 269.795 60.1639C269.784 60.4063 269.7 60.6397 269.555 60.8342C269.41 61.0287 269.21 61.1754 268.981 61.2555C267.484 61.8001 265.937 62.196 264.363 62.4375C260.609 62.9015 256.739 63.1895 252.873 63.4035C251.263 63.6175 248.355 60.5455 258.135 59.4295Z" fill="#171717"/>
<path d="M290.565 157.687C289.815 156.721 288.965 155.539 287.345 156.183C287.023 156.291 283.769 156.525 282.945 155.109C281.399 152.469 275.487 150.909 273.173 150.709C251.221 148.357 241.307 152.833 230.435 158.977C228.341 159.875 229.861 159.419 223.131 157.045C210.155 152.179 188.219 153.269 167.291 166.603C164.587 168.27 162.279 170.505 160.527 173.153C159.171 175.183 158.145 174.831 155.157 176.153C154.835 176.227 154.537 176.378 154.288 176.595C154.04 176.811 153.848 177.086 153.731 177.394C153.614 177.702 153.575 178.034 153.618 178.361C153.66 178.688 153.783 178.999 153.975 179.267C155.693 182.167 186.835 234.357 189.627 239.189C190.487 240.693 191.131 241.015 192.741 240.693C198.649 239.403 248.411 229.741 259.429 227.377C261.176 226.904 262.99 226.722 264.797 226.839C268.534 227.289 272.301 226.286 275.321 224.039C276.168 223.418 277.173 223.046 278.221 222.965C283.267 222.321 321.927 216.629 325.899 216.093C337.687 214.863 341.751 224.089 290.565 157.687ZM195.423 235.649C194.623 234.849 160.871 179.149 160.737 178.949C161.675 178.011 158.737 174.049 194.885 233.717C196.039 235.639 196.049 235.023 195.423 235.649ZM212.389 230.279C225.646 224.413 239.891 221.098 254.377 220.507L212.389 230.279ZM216.685 226.413C226.027 221.689 235.799 218.683 245.787 219.111C235.847 220.466 226.087 222.915 216.685 226.413V226.413ZM198.107 234.575C185.864 214.602 173.622 194.664 161.381 174.761C179.705 159.161 204.169 153.223 224.847 160.587C227.4 161.471 229.564 163.218 230.967 165.527C248.659 192.643 264.355 215.945 266.511 219.541C240.847 211.595 218.511 218.575 198.107 234.575V234.575ZM269.089 219.111C256.525 200.211 243.853 181.097 231.075 161.983C243.113 152.019 268.409 150.897 281.009 155.539C281.963 155.779 321.293 207.107 322.137 208.373C313.069 206.431 303.661 206.763 294.753 209.339C285.788 211.397 277.151 214.685 269.089 219.111V219.111ZM313.975 209.877C306.575 210.951 298.727 211.917 290.995 212.991C301.305 210.199 310.969 209.017 313.975 209.877V209.877ZM280.687 217.823C280.601 217.697 280.563 217.545 280.579 217.393C283.049 216.749 285.627 215.993 288.311 215.567C293.723 214.745 315.075 211.525 320.633 211.273C321.36 211.282 322.083 211.391 322.781 211.595C308.609 213.743 294.647 215.783 280.687 217.823Z" fill="#171717"/>
<path d="M306.137 170.037C303.937 169.057 305.783 164.919 308.499 166.277C307.747 167.561 306.889 168.747 306.137 170.037Z" fill="#A3E635"/>
<path d="M117.138 238.871C116.922 240.051 116.276 240.611 115.204 240.481C110.142 239.867 116.76 242.781 95.1245 229.957C89.4825 226.613 66.3445 214.143 66.3445 209.877C66.8705 209.351 72.9165 210.277 73.8625 210.843C121.722 239.751 113.702 234.577 117.138 238.871ZM94.6945 227.917C95.2365 228.459 105.22 234.403 112.412 238.655C113.158 239.097 113.486 238.763 113.916 238.227C114.346 237.581 113.916 237.263 113.38 236.937C111.36 235.711 99.3105 228.337 95.4465 226.091C95.2334 226.715 94.9823 227.325 94.6945 227.917V227.917Z" fill="#171717"/>
<path d="M252.55 92.1835C254.514 92.4855 253.15 91.7115 282.726 117.203C283.842 117.947 283.024 118.707 282.296 118.707C278.216 119.135 181.032 130.205 176.63 130.841C175.942 130.954 175.236 130.873 174.591 130.608C173.946 130.342 173.388 129.902 172.978 129.337C151.978 103.871 151.306 103.937 151.608 103.027C152.454 101.335 252.314 92.1455 252.55 92.1835ZM171.368 110.653C170.078 110.867 169.112 111.081 168.038 111.189C167.072 111.405 167.93 111.727 168.576 111.727C172.398 110.665 174.034 113.181 178.454 118.707C176.952 118.921 175.77 119.029 174.588 119.243C173.514 119.673 174.482 119.565 174.588 119.673C175.623 119.788 176.668 119.788 177.702 119.673C178.238 119.548 178.798 119.583 179.314 119.774C179.83 119.965 180.278 120.303 180.602 120.747C181.625 121.769 182.7 122.737 183.824 123.645C184.146 123.861 184.468 124.075 184.146 123.323C183.072 122.143 182.106 120.961 180.924 119.781C180.902 119.755 180.887 119.724 180.881 119.69C180.874 119.656 180.877 119.622 180.887 119.589C180.898 119.557 180.917 119.527 180.943 119.504C180.968 119.481 180.999 119.465 181.032 119.457C182.75 119.243 190.052 118.277 193.81 117.955C194.353 118.028 194.85 118.296 195.21 118.707C197.976 121.473 201.714 125.807 200.58 123.539C199.076 121.713 197.58 119.781 195.962 117.955C196.392 117.739 199.404 117.461 207.668 116.555C211.428 116.155 212.632 115.673 213.788 116.985C214.988 118.357 216.258 119.669 217.44 121.065C217.976 121.923 218.406 121.495 217.762 120.743C216.688 119.131 215.506 117.629 214.326 115.911C218.942 115.373 223.454 114.837 228.07 114.299C229.67 114.299 231.534 117.825 233.654 119.239L233.976 118.917C232.796 117.413 231.722 115.917 230.54 114.407C230.238 113.807 230.16 114.183 243.104 112.473C244.61 112.273 245.574 112.045 246.648 113.547C248.582 116.985 249.448 117.521 248.688 115.589C248.366 115.051 247.614 113.547 247.186 112.689C247.156 112.634 247.14 112.571 247.141 112.508C247.142 112.444 247.16 112.382 247.192 112.328C247.225 112.273 247.271 112.228 247.327 112.197C247.382 112.166 247.445 112.15 247.508 112.151C249.226 111.937 253.524 111.097 257.386 110.649C260.932 110.237 262.014 109.567 263.292 110.971C264.266 112.039 265.334 113.011 266.408 114.085C267.158 114.943 267.48 114.729 266.836 113.763L263.836 110.111C263.785 110.072 263.747 110.016 263.73 109.953C263.713 109.89 263.717 109.823 263.741 109.763C263.765 109.702 263.809 109.651 263.864 109.617C263.92 109.583 263.986 109.569 264.05 109.575L267.702 108.609C268.56 108.393 268.132 108.179 267.594 108.179C262.572 108.635 262.972 109.543 260.292 106.353C259.116 104.953 254.922 101.413 254.278 100.769C254.625 100.568 254.984 100.389 255.352 100.231C256.104 100.017 256.104 99.6955 255.03 99.9095C254.423 100.038 253.793 100.002 253.204 99.8035C252.99 99.6955 251.38 97.7635 250.842 97.1175C250.198 96.5815 250.198 96.9035 250.52 97.3335L251.92 99.5875C251.951 99.643 251.967 99.7057 251.966 99.7692C251.965 99.8327 251.947 99.8949 251.915 99.9494C251.882 100.004 251.836 100.049 251.78 100.08C251.725 100.111 251.662 100.126 251.598 100.125C247.088 100.661 242.684 101.199 238.282 101.627C236.848 101.627 236.282 100.657 234.738 99.3735C234.308 98.6215 233.986 98.9435 234.524 99.5875C235.06 100.339 235.49 101.091 236.028 101.843C236.242 102.273 236.134 102.379 235.92 102.379C233.88 102.809 229.798 102.907 227.32 103.239C221.09 104.075 220.754 104.219 218.3 101.305C217.743 100.68 217.132 100.106 216.474 99.5875C216.152 99.1595 215.938 99.4815 216.152 99.9095C217.12 101.091 218.3 102.595 219.374 103.883C219.396 103.91 219.411 103.941 219.417 103.974C219.423 104.008 219.421 104.042 219.41 104.074C219.399 104.107 219.38 104.136 219.355 104.159C219.33 104.181 219.3 104.198 219.266 104.205C217.656 104.313 211 104.639 208.098 105.171C205.738 105.605 205.298 105.493 203.482 103.347C203.005 102.655 202.465 102.008 201.87 101.413C201.118 100.447 201.334 101.199 201.548 101.735C202.3 102.809 203.052 103.991 203.804 105.171C203.827 105.221 203.839 105.274 203.841 105.328C203.842 105.383 203.832 105.436 203.812 105.487C203.792 105.537 203.761 105.583 203.723 105.621C203.685 105.659 203.639 105.689 203.588 105.709C198.648 106.461 193.838 107.229 188.988 107.963C187.214 108.233 187.83 107.563 185.014 104.743L184.692 105.065C185.338 106.139 186.092 107.105 186.948 108.285C182.76 109.037 178.678 109.567 174.598 110.433C173.998 110.609 173.354 110.565 172.783 110.308C172.212 110.051 171.752 109.599 171.484 109.033C168.8 105.705 168.37 105.919 168.8 106.457C169.516 107.938 170.376 109.343 171.368 110.653Z" fill="#A3E635"/>
<path d="M172.657 137.499C172.457 137.299 170.745 135.989 172.871 135.459C177.271 134.921 287.237 122.357 291.961 121.821C292.887 121.821 293.533 122.959 292.069 123.323C280.751 124.785 174.931 137.043 172.657 137.499Z" fill="#171717"/>
<path d="M141.085 102.599C170.467 135.599 171.161 134.669 169.865 135.781C169.113 136.425 168.583 135.667 168.147 135.137C162.533 128.297 139.475 103.461 139.475 103.027C139.475 102.705 139.467 100.779 141.085 102.599Z" fill="#171717"/>
<path d="M187.475 176.909C186.231 177.547 185.031 178.263 184.675 177.339C184.247 175.625 193.307 171.683 194.233 171.325C202.665 168.019 211.716 166.59 220.757 167.137C222.315 167.308 223.859 167.595 225.375 167.997C230.009 170.307 207.881 166.453 187.475 176.909Z" fill="#171717"/>
<path d="M226.243 175.191C228.819 176.265 226.349 176.591 225.919 176.591C220.7 176.622 215.505 177.307 210.457 178.631C210.135 178.739 207.557 178.417 210.027 177.231C219.609 174.161 221.725 174.149 226.243 175.191Z" fill="#171717"/>
<path d="M270.163 197.635C268.875 195.595 267.585 193.661 266.297 191.729C266.109 191.606 265.897 191.524 265.675 191.486C265.454 191.449 265.227 191.458 265.009 191.513C263.927 191.811 262.753 192.157 261.571 192.373C262.217 190.869 263.719 190.547 265.009 189.687C264.041 188.077 263.183 186.467 262.209 184.749C258.337 186.149 258.569 186.077 257.483 185.715C258.135 184.737 256.989 185.115 261.457 183.245C260.167 180.989 258.987 178.845 257.697 176.587C256.839 176.909 255.979 177.231 255.013 177.553C255.013 176.051 256.301 175.953 256.947 175.299C255.979 173.259 255.013 171.217 254.047 169.069C254.155 168.963 254.099 167.313 255.765 169.607C258.565 173.459 258.821 174.547 259.631 174.547C263.175 173.795 266.611 172.935 270.155 172.077C266.503 165.419 265.967 163.163 271.443 171.003C271.566 171.367 271.825 171.669 272.164 171.849C272.503 172.028 272.898 172.072 273.269 171.969C275.843 171.719 278.423 171.647 281.215 171.539C280.856 170.892 280.569 170.208 280.357 169.499C277.557 160.801 281.859 168.855 281.859 168.963C283.835 174.891 288.621 169.891 290.659 173.687C288.941 173.581 287.115 173.473 284.967 173.365C286.149 175.191 287.115 176.801 288.189 178.413C288.441 178.915 293.705 178.451 295.277 180.013C293.451 180.979 291.625 180.013 289.585 180.657C290.445 182.057 291.303 183.457 292.271 184.845C292.377 185.061 292.915 185.061 293.343 185.061C294.955 185.167 296.459 185.167 298.069 185.275C298.513 185.37 298.945 185.514 299.357 185.705C299.357 186.485 299.993 185.869 293.557 186.885C294.523 188.497 295.383 190.107 296.457 191.611C297.015 192.171 298.857 191.783 303.221 192.041C303.643 192.041 305.621 192.745 305.047 193.329C302.685 193.543 300.321 193.759 297.847 193.973C298.031 194.78 298.282 195.57 298.597 196.335C301.397 204.067 301.283 204.389 297.197 197.303C296.397 196.233 295.697 194.403 294.621 194.403C291.821 194.833 289.143 195.263 286.245 195.691C286.997 197.517 288.393 201.169 288.821 202.565C289.789 205.141 288.177 202.779 288.071 202.671C285.347 198.815 284.553 196.443 283.345 196.443C280.123 197.087 277.009 197.843 273.787 198.483C274.755 200.201 275.613 201.813 276.473 203.423C277.225 204.605 276.365 204.389 275.935 203.745C275.291 202.993 274.535 202.345 273.895 201.597C273.147 200.735 272.495 199.343 271.641 199.127C270.507 198.751 269.275 199.821 265.627 200.631C266.297 199.031 268.337 198.709 270.163 197.635ZM263.397 182.493C266.833 181.635 270.163 180.667 273.491 179.809C272.633 177.875 271.667 176.051 270.691 173.903C267.147 174.547 263.491 175.303 259.631 176.051C261.035 178.305 262.209 180.453 263.397 182.493ZM267.907 190.547C269.307 192.695 270.593 194.735 271.881 196.669C271.967 196.78 272.087 196.86 272.222 196.899C272.357 196.937 272.501 196.932 272.633 196.883C275.747 196.023 278.969 195.165 282.189 194.199C281.117 192.373 280.043 190.655 278.969 188.937C278.891 188.814 278.777 188.717 278.643 188.659C278.509 188.602 278.36 188.586 278.217 188.615C274.887 189.259 271.559 189.903 267.907 190.547V190.547ZM277.573 186.789C276.713 185.285 275.747 183.789 274.887 182.279C274.503 181.509 272.957 182.365 264.257 183.997C265.223 185.715 265.975 186.997 266.833 188.397C267.049 188.613 267.479 188.935 267.801 188.827C271.021 188.185 274.243 187.541 277.573 186.789V186.789ZM280.901 188.077C283.647 192.571 284.211 193.877 284.875 193.877C287.675 193.447 290.459 192.909 293.357 192.373C292.391 190.761 291.533 189.259 290.557 187.755C290.255 187.135 289.457 187.193 280.901 188.077V188.077ZM272.633 173.687C275.815 179.521 274.859 179.567 278.647 179.165C280.687 178.947 282.727 178.735 284.875 178.519C284.015 176.909 283.181 175.389 282.297 174.009C282.192 173.839 282.051 173.692 281.884 173.581C281.718 173.47 281.529 173.396 281.331 173.365C278.537 173.419 275.747 173.581 272.633 173.687V173.687ZM276.821 181.419C277.787 183.137 278.647 184.533 279.621 185.929C279.722 186.061 279.852 186.167 280.001 186.242C280.149 186.316 280.313 186.356 280.479 186.359C283.379 186.037 286.171 185.607 289.177 185.285C285.301 179.483 288.351 180.595 276.821 181.419V181.419Z" fill="#171717"/>
<path d="M251.263 163.593C250.941 162.627 251.693 162.089 252.445 161.875C263.359 157.855 274.531 158.619 276.605 160.693C277.539 161.627 276.509 162.191 275.855 161.983C268.053 159.499 259.019 161.655 251.263 163.593Z" fill="#171717"/>
<path d="M33.0545 143.835C36.4755 143.867 39.8107 144.91 42.6405 146.832C45.4704 148.754 47.6686 151.471 48.9584 154.639C50.2483 157.808 50.5723 161.287 49.8896 164.64C49.207 167.992 47.5482 171.067 45.1219 173.479C42.6956 175.891 39.6103 177.532 36.254 178.194C32.8977 178.857 29.4204 178.512 26.2595 177.203C23.0987 175.895 20.3954 173.68 18.4899 170.839C16.5844 167.998 15.5617 164.657 15.5505 161.235C15.5733 156.61 17.4281 152.181 20.7088 148.92C23.9894 145.659 28.4287 143.831 33.0545 143.835V143.835ZM30.4785 158.547C30.4785 158.439 26.9345 151.459 25.1085 147.701C23.3905 149.311 21.8865 150.701 20.1685 152.211C23.7125 154.465 30.3705 158.547 30.4785 158.547ZM19.5245 168.961C21.2425 170.787 22.7465 172.289 24.3565 174.007C26.6125 170.357 30.9085 163.377 30.9085 163.269C30.6085 163.579 23.3125 167.069 19.5245 168.961ZM18.7725 167.561C22.7465 165.521 29.9405 161.761 29.9405 161.655C25.8605 161.439 21.7805 161.333 17.3765 161.117C17.8085 163.379 18.2365 165.311 18.7725 167.561ZM46.6925 168.741C47.3385 166.595 47.9825 164.661 48.6265 162.621C44.2265 162.407 36.0625 162.083 35.9545 162.191C39.4985 164.345 42.9345 166.493 46.6925 168.747V168.741ZM34.6665 145.761C34.4505 150.161 34.1285 158.325 34.2365 158.325C36.3845 154.889 38.5325 151.453 40.8945 147.695C38.7465 147.057 36.8085 146.411 34.6665 145.761ZM32.1965 158.003C32.3045 158.003 32.7325 149.949 32.9485 145.655C30.8005 146.083 28.7605 146.621 26.6125 147.055C28.5445 150.921 30.3705 154.465 32.1965 158.009V158.003ZM45.7265 170.245C42.1825 167.991 35.4185 163.909 35.3105 164.017C37.1365 167.453 38.9605 170.889 40.7865 174.541C42.5045 173.161 44.0085 171.761 45.7265 170.251V170.245ZM29.2965 160.259C29.2965 160.151 22.8545 155.859 19.3105 153.601C18.6665 155.641 18.0205 157.573 17.3765 159.615C21.6725 159.835 25.5385 160.049 29.2965 160.265V160.259ZM47.4445 155.103C43.6865 156.929 40.1425 158.647 36.7065 160.365C36.7065 160.473 44.5465 160.903 48.7345 161.117C48.3045 158.975 47.8745 157.043 47.4445 155.109V155.103ZM39.2845 175.293C37.3505 171.641 33.7005 164.875 33.7005 164.875C33.5925 168.635 33.3765 172.501 33.2705 176.581C35.3105 176.161 37.1365 175.727 39.2845 175.299V175.293ZM42.4085 148.775C40.2605 152.211 38.2205 155.325 36.0725 158.439C36.1785 158.547 42.9445 155.109 46.5965 153.285C45.0825 151.781 43.7945 150.277 42.4085 148.775ZM31.3465 176.479C31.6685 172.507 31.9905 164.989 31.8845 164.989C29.8445 168.103 27.9105 171.325 25.6565 174.761C27.6865 175.405 29.4085 175.943 31.3365 176.479H31.3465Z" fill="#171717"/>
<path d="M316.767 119.135C318.379 119.135 319.883 119.029 321.385 119.135C322.245 119.243 324.385 121.713 325.037 122.249C323.637 122.035 320.527 121.499 320.311 121.391C319.237 120.747 318.163 119.995 316.767 119.135Z" fill="#171717"/>
<path d="M212.066 114.841C210.134 115.055 208.525 115.283 206.913 115.485C203.265 115.943 199.61 116.237 195.958 116.665C195.528 116.665 194.885 116.665 194.671 116.343C192.737 114.089 190.804 111.727 188.656 109.143C190.912 108.821 200.695 107.487 203.477 106.995C203.969 106.864 204.49 106.885 204.97 107.058C205.45 107.231 205.865 107.546 206.16 107.961C207.864 110.127 209.918 112.371 212.066 114.841Z" fill="#A3E635"/>
<path d="M260.283 108.505C260.334 108.545 260.371 108.601 260.389 108.664C260.406 108.727 260.402 108.794 260.378 108.854C260.354 108.915 260.31 108.966 260.255 109C260.199 109.034 260.133 109.048 260.069 109.041C258.611 109.213 252.571 110.153 246.323 110.653C244.557 110.653 245.807 110.801 238.807 103.453C238.755 103.414 238.718 103.358 238.7 103.295C238.683 103.232 238.687 103.165 238.711 103.105C238.735 103.044 238.779 102.993 238.834 102.959C238.89 102.925 238.956 102.911 239.021 102.917C252.621 101.041 252.621 100.631 253.089 101.091C255.559 103.561 257.893 106.061 260.283 108.505Z" fill="#A3E635"/>
<path d="M221.947 104.853C226.905 104.233 233.303 103.637 235.799 103.243C236.291 103.149 236.801 103.189 237.273 103.359C237.745 103.529 238.163 103.823 238.483 104.209C240.353 106.429 242.349 108.609 244.391 110.975C241.331 111.411 241.781 111.267 229.893 112.693C229.442 112.702 228.998 112.59 228.605 112.371C226.349 110.115 224.205 107.753 221.947 105.391V104.853Z" fill="#A3E635"/>
<path d="M227.639 113.015C223.987 113.445 220.439 113.655 216.899 114.415C215.667 114.75 214.357 114.655 213.186 114.146C212.015 113.637 211.052 112.745 210.457 111.615C209.281 110.049 208.026 108.544 206.697 107.105C206.656 107.052 206.63 106.99 206.619 106.924C206.608 106.858 206.614 106.79 206.635 106.727C206.656 106.663 206.693 106.606 206.741 106.56C206.789 106.514 206.848 106.48 206.913 106.461C220.005 105.061 218.131 105.185 219.585 105.061C220.229 105.061 220.553 105.487 220.985 105.919C223.363 108.129 225.587 110.5 227.639 113.015Z" fill="#A3E635"/>
<path d="M173.839 111.405C177.489 110.867 179.535 110.483 183.933 109.901C186.513 109.559 187.579 108.553 188.871 110.759C190.965 114.335 192.099 114.473 193.705 116.881C187.469 117.573 184.597 118.055 180.819 118.385C179.179 118.385 179.019 117.709 173.731 111.833C173.688 111.808 173.654 111.77 173.635 111.724C173.616 111.678 173.612 111.627 173.624 111.579C173.637 111.531 173.664 111.488 173.703 111.457C173.741 111.425 173.789 111.407 173.839 111.405V111.405Z" fill="#A3E635"/>
</svg>
